<?xml version="1.0" standalone="no"?>
<!DOCTYPE svg PUBLIC "-//W3C//DTD SVG 20010904//EN"
 "http://www.w3.org/TR/2001/REC-SVG-20010904/DTD/svg10.dtd">
<svg version="1.0" xmlns="http://www.w3.org/2000/svg"
 width="510.000000pt" height="490.000000pt" viewBox="0 0 510.000000 490.000000"
 preserveAspectRatio="xMidYMid meet">

<g transform="translate(0.000000,490.000000) scale(0.100000,-0.100000)"
fill="#000000" stroke="none">
<path d="M1230 4257 c3 -3 33 -16 67 -30 137 -55 316 -202 421 -345 35 -47 55
-65 82 -72 19 -5 94 -23 165 -41 138 -33 239 -74 271 -110 19 -22 19 -22 -1
-14 -88 36 -346 78 -375 60 -7 -5 -3 -20 15 -50 14 -24 88 -157 166 -297 77
-139 151 -267 164 -283 27 -36 81 -55 245 -85 307 -57 363 -69 422 -97 35 -17
74 -40 88 -52 l25 -21 -30 7 c-35 9 -356 6 -465 -5 l-75 -7 80 -54 c101 -67
304 -167 460 -224 108 -40 352 -115 430 -131 17 -4 38 -9 48 -12 49 -15 -369
552 -631 858 -363 422 -680 697 -982 848 -132 67 -208 95 -331 125 -91 22
-270 44 -259 32z"/>
<path d="M2265 3889 c298 -277 465 -447 665 -674 282 -320 563 -710 752 -1047
50 -90 67 -111 103 -131 l43 -24 -15 44 c-17 50 -240 388 -403 612 -371 509
-808 978 -1165 1250 l-70 54 90 -84z"/>
<path d="M1844 1622 c-62 -52 -270 -263 -388 -392 -38 -41 -66 -68 -63 -59 3
9 62 118 131 243 70 125 124 232 121 237 -11 17 -96 10 -131 -12 -68 -42 -334
-372 -499 -619 -41 -62 -75 -118 -75 -125 0 -17 19 -32 52 -40 25 -6 29 -2 55
45 45 83 155 251 231 352 96 127 183 231 189 225 2 -3 -25 -60 -62 -127 -126
-230 -176 -340 -164 -361 6 -12 20 -19 37 -19 29 0 110 78 404 388 64 67 119
122 122 122 3 0 -50 -82 -117 -183 -144 -216 -175 -275 -161 -315 24 -68 97
-47 208 58 67 65 69 67 62 104 l-7 38 -57 -54 c-58 -56 -100 -84 -109 -74 -12
11 112 197 361 541 22 30 38 57 35 59 -2 2 -29 7 -60 11 l-56 7 -59 -50z"/>
<path d="M3465 1646 c-25 -11 -56 -59 -182 -287 -182 -328 -206 -378 -191
-396 6 -7 20 -13 32 -13 17 0 30 17 60 77 l37 76 29 -50 c32 -56 79 -100 116
-109 15 -4 41 1 65 11 36 17 40 17 57 2 40 -37 108 -6 186 84 l38 44 -7 -42
c-9 -56 0 -78 35 -93 41 -17 84 0 137 52 30 30 43 50 43 70 0 36 -9 35 -46 -3
-29 -31 -74 -59 -94 -59 -30 0 9 118 81 242 44 75 47 88 20 88 -36 0 -51 -12
-95 -79 -25 -36 -80 -103 -124 -148 -73 -77 -112 -101 -112 -70 0 7 29 70 65
140 36 70 63 132 60 137 -14 22 -44 8 -70 -32 -16 -24 -51 -86 -78 -138 -48
-92 -91 -140 -127 -140 -21 0 -66 47 -79 82 -9 25 -7 29 37 57 97 62 170 151
157 191 -11 34 -52 26 -68 -13 -16 -37 -168 -159 -182 -145 -2 2 41 85 96 183
174 311 174 312 104 281z"/>
<path d="M2061 1486 c-26 -28 -25 -69 2 -74 22 -4 77 50 77 77 0 30 -50 28
-79 -3z"/>
<path d="M1936 1309 c-38 -34 -44 -44 -36 -60 8 -15 1 -34 -35 -97 -61 -105
-71 -140 -47 -172 28 -36 64 -47 115 -31 23 7 53 12 67 12 20 -1 41 18 100 90
114 139 274 282 216 193 -21 -31 -17 -78 6 -82 21 -4 98 109 98 143 0 63 -74
53 -167 -23 l-58 -47 28 48 c31 53 28 72 -12 62 -39 -10 -43 -15 -127 -156
-79 -133 -123 -179 -171 -179 -37 0 -28 34 36 144 89 154 94 165 80 182 -19
23 -44 16 -93 -27z"/>
<path d="M2955 1323 c-81 -43 -162 -132 -188 -209 -9 -24 -41 -60 -102 -114
-49 -43 -91 -77 -93 -75 -5 5 42 94 129 242 44 76 77 143 75 150 -12 30 -46
12 -92 -49 -98 -128 -233 -253 -252 -233 -4 4 21 60 56 126 64 121 73 153 47
163 -18 6 -27 -6 -112 -153 -49 -84 -67 -125 -71 -161 -4 -42 -1 -50 17 -60
35 -18 77 -2 136 52 30 27 55 47 55 44 0 -21 -59 -118 -96 -158 -67 -71 -104
-136 -104 -179 0 -30 5 -39 21 -44 33 -11 62 11 107 80 23 34 87 106 143 159
92 87 129 112 129 87 0 -23 34 -41 75 -41 86 0 215 115 277 247 31 65 33 101
8 113 -8 4 -25 12 -37 18 -32 17 -92 14 -128 -5z m86 -52 l21 -19 -23 -47
c-46 -92 -176 -210 -209 -190 -6 3 -10 21 -10 39 0 61 91 177 175 224 26 15
23 15 46 -7z"/>
</g>
</svg>
