<?xml version="1.0" standalone="no"?>
<!DOCTYPE svg PUBLIC "-//W3C//DTD SVG 20010904//EN"
 "http://www.w3.org/TR/2001/REC-SVG-20010904/DTD/svg10.dtd">
<svg version="1.0" xmlns="http://www.w3.org/2000/svg"
 width="366.000000pt" height="147.000000pt" viewBox="0 0 366.000000 147.000000"
 preserveAspectRatio="xMidYMid meet">

<g transform="translate(0.000000,147.000000) scale(0.100000,-0.100000)"
fill="#000000" stroke="none">
<path d="M1190 1137 c-78 -67 -233 -224 -360 -365 -41 -46 -76 -79 -78 -74 -1
4 56 113 127 242 72 128 128 237 125 242 -3 4 -28 8 -55 8 -48 0 -54 -3 -116
-62 -132 -127 -445 -536 -517 -677 -20 -38 -11 -55 36 -66 24 -6 29 -2 49 37
79 156 406 604 426 584 3 -2 -28 -64 -68 -138 -101 -186 -159 -308 -159 -334
0 -22 17 -34 50 -34 11 0 119 105 266 259 137 143 250 258 252 256 2 -2 -54
-90 -125 -197 -70 -106 -136 -212 -147 -235 -22 -51 -15 -89 19 -105 37 -16
94 13 177 92 68 63 70 66 63 102 l-7 37 -51 -50 c-51 -50 -104 -85 -114 -75
-12 12 175 294 333 504 35 47 61 89 57 93 -5 4 -30 11 -58 14 l-50 7 -75 -65z"/>
<path d="M2835 1181 c-32 -14 -47 -36 -162 -241 -226 -403 -243 -440 -207
-454 32 -12 42 -5 63 48 12 29 29 63 38 76 15 22 15 21 44 -28 31 -55 78 -99
116 -108 17 -5 41 1 69 14 24 12 44 17 44 12 0 -5 9 -14 21 -20 36 -20 78 -1
145 66 36 35 66 64 68 64 2 0 0 -16 -4 -36 -15 -67 22 -112 80 -99 16 4 52 27
80 52 38 34 50 52 50 74 0 16 -3 29 -6 29 -4 0 -29 -20 -55 -45 -55 -52 -89
-59 -89 -20 0 35 42 136 90 217 46 77 48 88 17 88 -31 0 -48 -15 -91 -81 -47
-74 -196 -229 -218 -229 -29 0 -22 23 47 154 52 101 62 126 51 135 -7 6 -20 9
-28 6 -15 -6 -131 -202 -142 -241 -4 -12 -25 -34 -47 -50 -33 -23 -45 -26 -67
-18 -22 8 -71 73 -72 95 0 4 21 21 48 37 100 65 177 166 151 198 -19 23 -38
16 -63 -25 -36 -56 -202 -176 -184 -133 2 5 58 108 126 229 67 121 122 226
122 232 0 13 -7 13 -35 2z"/>
<path d="M1425 1015 c-29 -29 -31 -68 -2 -73 22 -4 79 53 75 75 -5 29 -44 27
-73 -2z"/>
<path d="M1335 868 c-11 -6 -34 -24 -52 -41 -25 -24 -29 -33 -21 -46 8 -14 0
-35 -37 -101 -60 -105 -67 -149 -32 -184 30 -29 76 -34 117 -11 14 7 36 11 50
9 21 -4 34 6 88 74 70 88 213 232 231 232 8 0 6 -10 -4 -31 -20 -37 -16 -73 7
-77 24 -5 99 113 96 148 -6 53 -87 37 -163 -31 -61 -57 -67 -54 -30 14 14 25
22 47 18 50 -4 3 -23 0 -41 -7 -29 -9 -46 -32 -115 -146 -54 -89 -93 -142
-116 -157 -36 -24 -76 -30 -86 -13 -4 6 28 73 71 148 42 75 79 140 81 144 4 7
-25 38 -35 38 -4 0 -16 -6 -27 -12z"/>
<path d="M2311 848 c-64 -31 -140 -112 -172 -184 -23 -50 -44 -75 -116 -138
-48 -42 -89 -72 -91 -68 -3 9 65 133 163 300 40 68 46 85 34 93 -27 17 -38 9
-92 -63 -65 -89 -211 -228 -238 -228 -11 0 -19 3 -17 8 2 4 33 64 68 134 59
116 64 128 49 143 -20 20 -18 23 -110 -135 -54 -94 -73 -137 -77 -172 -4 -43
-2 -48 22 -59 33 -16 71 1 138 60 25 22 49 41 52 41 15 0 -73 -141 -119 -190
-62 -67 -85 -107 -85 -153 0 -27 5 -36 23 -41 30 -8 64 19 109 86 20 30 85
100 144 157 l108 102 24 -31 c29 -37 75 -40 138 -9 61 29 170 149 206 226 36
77 33 111 -12 120 -17 3 -33 10 -36 14 -10 16 -68 9 -113 -13z m91 -47 l20
-20 -22 -47 c-28 -57 -129 -167 -170 -184 -115 -48 -30 159 99 241 25 16 46
29 48 29 2 0 13 -9 25 -19z"/>
</g>
</svg>
